<?xml version="1.0" encoding="utf-8"?>
<!-- Generator: Adobe Illustrator 16.0.0, SVG Export Plug-In . SVG Version: 6.00 Build 0)  -->
<!DOCTYPE svg PUBLIC "-//W3C//DTD SVG 1.1//EN" "http://www.w3.org/Graphics/SVG/1.1/DTD/svg11.dtd">
<svg version="1.1" id="mac" xmlns="http://www.w3.org/2000/svg" xmlns:xlink="http://www.w3.org/1999/xlink" x="0px" y="0px"
	 width="500px" height="600px" viewBox="0 0 500 600" enable-background="new 0 0 500 600" xml:space="preserve">
<path fill="none" stroke="#000000" stroke-miterlimit="10" d="M128.925,229.084l248.528-61.107L365.53,352.789L114.394,374.4
	L128.925,229.084z"/>
<path fill="none" stroke="#000000" stroke-miterlimit="10" d="M129.918,218.154c0,0-3.371,0.486-5.806,2.732
	c-1.984,1.83-3.063,4.704-3.509,10.433l-18.258,173.386c0,0-1.739,6.707,5.341,7.08l258.837-10.558c0,0,9.191,0.372,9.937-9.812
	l15.575-235.724c0,0,0.029-6.537-11.601-3.613L129.918,218.154z"/>
<path fill="none" stroke="#000000" stroke-miterlimit="10" d="M105.646,411.447c0,0,6.263,3.319,9.865,2.822l256.726-9.563
	c0,0,9.439,0.373,10.806-9.439l14.779-231.264c0,0,0.746-5.092-6.771-10.75"/>
<path fill="none" stroke="#000000" stroke-miterlimit="10" d="M104.297,386.174l273.841-20.16"/>
<path fill="none" stroke="#000000" stroke-miterlimit="10" d="M295.68,407.558l5.576,20.685c0,0,4.312,16.581-5.576,16.581
	L268,446.957c0,0-4.826,0.292-6.543,0.292c-0.676,0-2.586,0.014-2.586,0.014l-74.785-0.018c0,0-0.729,0.061-0.761-0.043
	c-0.071-0.227,0.608-0.225,0.608-0.225l46.712-2.341c0,0,11.928,0.745,11.926-13.786l-1.354-21.264"/>
<path fill="none" stroke="#000000" stroke-miterlimit="10" d="M297.912,407.475l5.766,21.699c0,0,4.119,16.395-5.766,19.003h-29.26
	l-6.055,0.497l-8.291-0.307l-64.367,0.089c0,0-5.372-0.229-6.614-1.254"/>
<path fill="none" stroke="#000000" stroke-miterlimit="10" d="M243.193,195.146c-0.192,1.063-0.984,1.81-1.769,1.667
	c-0.785-0.142-1.265-1.119-1.073-2.182s0.984-1.81,1.769-1.668S243.386,194.083,243.193,195.146z"/>
<path fill="none" stroke="#000000" stroke-miterlimit="10" d="M241.977,435.946h60.21"/>
<path fill="none" stroke="#000000" stroke-miterlimit="10" d="M391.75,233.37l-4.564,66.743"/>
<path fill="none" stroke="#000000" stroke-miterlimit="10" d="M386.955,304.631l-0.908,14.717"/>
</svg>
